<svg xmlns="http://www.w3.org/2000/svg" width="40" height="40" viewBox="0 0 40 40" fill="none">
    <path d="M40 20C40 31.0457 31.0457 40 20 40C8.9543 40 0 31.0457 0 20C0 8.9543 8.9543 0 20 0C31.0457 0 40 8.9543 40 20Z" fill="white" />
    <path
        d="M14.357 10.0787C13.5098 10.4256 12.8159 10.9743 12.4851 11.5714C11.9849 12.467 11.9687 13.6288 12.4367 14.4922C12.6304 14.8472 12.6223 15.0086 12.3722 15.2426C12.2592 15.3475 12.0898 15.5976 12.001 15.7993C11.6541 16.5577 11.6218 16.9128 11.6137 19.8901C11.6137 22.6657 11.6137 22.7383 11.4523 22.7383C11.2587 22.7383 10.7746 23.0045 10.5406 23.2466C10.2824 23.4967 10 24.1422 10 24.4488C10 24.9813 10.5083 25.9576 10.7827 25.9657C10.8149 25.9657 10.936 26.0383 11.0489 26.1271C11.1619 26.2158 11.3717 26.2885 11.5169 26.2885H11.7751V26.8129C11.7751 27.4745 11.888 27.7408 12.1785 27.7408C12.5174 27.7408 12.5819 27.6036 12.5819 26.9178V26.2804L13.0499 26.3046L13.5098 26.3288V27.7811V29.2335L13.0983 29.2577C12.7352 29.2819 12.6707 29.2577 12.5497 29.0721C12.3641 28.7897 12.001 28.7897 11.8719 29.0721C11.7509 29.3384 11.7509 29.5078 11.88 29.7821L11.9768 30L13.0661 29.9839C14.0827 29.9597 14.1553 29.9516 14.1795 29.7983C14.2521 29.3222 14.2844 29.2819 14.8654 28.9995C15.18 28.8381 15.4947 28.709 15.5512 28.709C15.5996 28.709 15.648 28.6687 15.648 28.6283C15.648 28.5799 15.7206 28.5477 15.8094 28.5477C15.8981 28.5477 15.9708 28.5073 15.9708 28.467C15.9708 28.4186 16.0192 28.3863 16.0676 28.3863C16.1241 28.3863 16.6082 28.1765 17.1407 27.9102C19.6823 26.6677 20.1422 26.4498 20.2632 26.4498C20.3359 26.4498 20.5295 26.5224 20.707 26.6031C21.5139 27.0066 23.7085 28.0555 23.9425 28.1523C24.0797 28.2168 24.2007 28.2895 24.2007 28.3217C24.2007 28.3621 24.2491 28.3863 24.3056 28.3863C24.354 28.3863 24.8381 28.6041 25.3787 28.8785C26.2985 29.3384 26.355 29.3787 26.4276 29.6611L26.5003 29.9597L27.5895 29.9839L28.6788 30L28.7756 29.7821C28.8482 29.6288 28.8805 29.064 28.8805 27.9264V26.2885H29.0903C29.292 26.2885 29.8729 26.0222 30.0504 25.8447C30.4861 25.4251 30.7443 24.594 30.583 24.1261C30.349 23.4241 30.1876 23.2143 29.6954 22.9158C29.3404 22.7141 29.292 22.706 28.001 22.6979H26.6616L26.6858 22.4962C26.7827 21.762 26.7907 21.4231 26.71 21.3424C26.6616 21.294 26.6213 21.1972 26.6213 21.1326C26.6213 21.0035 25.9112 20.2854 25.4917 19.995C25.3384 19.8901 25.1528 19.7448 25.0883 19.6722C25.0237 19.6077 24.8381 19.4544 24.6848 19.3414C24.5315 19.2204 24.2975 19.0267 24.1604 18.9057C24.0313 18.7927 23.8457 18.6394 23.7489 18.5749C23.6601 18.5103 23.531 18.3086 23.4665 18.115C23.41 17.9294 23.3374 17.76 23.3132 17.7358C23.289 17.7115 23.2163 17.5825 23.1518 17.4534C22.8775 16.9128 22.232 16.4044 21.3525 16.0494C21.062 15.9365 19.8356 15.9365 19.5451 16.0494C18.9077 16.3157 18.7383 16.4125 18.4075 16.711C17.9637 17.1225 17.5845 17.6712 17.5845 17.8891C17.5845 17.9859 17.5522 18.0585 17.5199 18.0585C17.3989 18.0585 17.2617 17.8649 17.2617 17.6793C17.2617 17.5825 17.2295 17.4211 17.1891 17.3162C17.1488 17.2113 17.0761 16.9692 17.0197 16.7675C16.9632 16.5658 16.8744 16.2834 16.8341 16.1382C16.7534 15.8961 16.7615 15.8638 16.9793 15.6944C17.3263 15.4362 17.8749 14.8472 17.9798 14.6213C18.3833 13.7499 18.472 13.0963 18.2864 12.4105C17.9556 11.2163 17.2214 10.4579 16.0434 10.0787C15.6964 9.97378 14.6314 9.97378 14.357 10.0787ZM16.2693 10.9743C17.0842 11.3535 17.5845 12.1523 17.5845 13.064C17.5845 13.5804 17.5441 13.7499 17.3101 14.2663C17.1972 14.5245 16.6082 15.0893 16.3177 15.2264C16.1967 15.2829 16.0272 15.3636 15.9546 15.4039C15.8739 15.4443 15.5593 15.4766 15.2446 15.4766C14.5749 15.4766 14.0908 15.2829 13.5744 14.8069C13.0661 14.3308 12.8886 13.887 12.8805 13.0721C12.8805 12.6687 12.9208 12.3621 12.9773 12.3056C13.0257 12.2572 13.0661 12.1684 13.0661 12.112C13.0661 11.9909 13.0741 11.9829 13.4695 11.5068C13.7358 11.1921 14.3893 10.829 14.8008 10.7726C15.2123 10.708 15.9062 10.8048 16.2693 10.9743ZM13.4453 15.6863C14.0746 16.114 14.7685 16.3238 15.3011 16.2511C16.116 16.1462 16.0918 16.1462 16.116 16.3641C16.1321 16.4771 16.1725 16.6384 16.2047 16.7272C16.2451 16.8159 16.3177 17.0499 16.3742 17.2516C16.584 17.9939 16.6404 18.1876 16.705 18.3651C16.826 18.6798 16.7857 18.9218 16.6001 19.0509C16.4952 19.1236 16.2854 19.2849 16.1321 19.4221C15.9788 19.5593 15.8174 19.6722 15.769 19.6722C15.6722 19.6722 15.4866 19.293 15.4866 19.0993C15.4866 19.0187 15.4544 18.9299 15.406 18.9057C15.3656 18.8815 15.3253 18.7685 15.3253 18.6636C15.3253 18.5587 15.293 18.4458 15.2446 18.4216C15.2042 18.3974 15.1639 18.3006 15.1639 18.2199C15.1639 17.9778 14.8169 17.7842 14.5991 17.8971C14.4458 17.9778 14.4297 18.0343 14.47 18.3248C14.5265 18.6798 14.7927 19.535 14.9218 19.769C15.059 20.0192 15.0187 20.3822 14.8411 20.4791C14.7605 20.5275 14.5749 20.7211 14.4377 20.9228C14.1795 21.3021 14.0988 21.8265 14.2279 22.3913L14.2844 22.6415L13.7761 22.6979C13.4937 22.7302 13.0903 22.7383 12.8643 22.7221L12.4609 22.6979L12.4367 19.7126C12.4286 18.0101 12.4528 16.6546 12.4932 16.5658C12.5335 16.4771 12.6223 16.2753 12.6868 16.122C12.7917 15.888 13.0661 15.4846 13.1225 15.4766C13.1306 15.4766 13.2758 15.5734 13.4453 15.6863ZM21.5461 16.937C21.9415 17.1306 22.4821 17.6631 22.6031 17.9697C22.821 18.5103 22.9017 19.059 22.821 19.4302C22.6354 20.2209 22.1351 20.9228 21.5784 21.1568C20.9813 21.415 20.8603 21.4473 20.465 21.4473C19.6662 21.4473 18.8754 21.0116 18.4801 20.358C18.3429 20.1321 18.23 19.8901 18.23 19.8174C18.23 19.7448 18.1977 19.6561 18.1493 19.6319C18.1089 19.6077 18.0686 19.3495 18.0686 19.0671C18.0686 18.7847 18.1089 18.5265 18.1493 18.5023C18.1977 18.4781 18.23 18.3812 18.23 18.2925C18.23 17.7842 19.2224 16.8724 19.9244 16.7352C20.3601 16.6546 21.1992 16.7595 21.5461 16.937ZM17.4231 19.7529C17.4231 19.882 17.4957 20.116 17.5845 20.2774C17.8346 20.7211 17.8023 20.7937 17.3263 20.818C16.9713 20.8341 16.8906 20.8744 16.8099 21.0358C16.6001 21.4554 16.9471 21.6329 17.9233 21.6006C18.5527 21.5764 18.8754 21.6571 19.0368 21.8669C19.061 21.8991 19.2789 21.9798 19.5209 22.0363C19.9728 22.1573 20.1422 22.3026 20.0615 22.5204C19.9808 22.7383 16.6404 22.8028 15.5108 22.6092C15.1397 22.5446 14.8896 22.117 14.946 21.6813C14.9864 21.3585 15.0832 21.2375 15.648 20.8099C15.8013 20.6969 16.0111 20.5194 16.1079 20.4226C16.2047 20.3258 16.4307 20.1483 16.592 20.0192C16.7615 19.8981 16.9551 19.7287 17.0197 19.6561C17.2133 19.4221 17.4231 19.4705 17.4231 19.7529ZM24.0071 19.7287C24.1362 19.8578 24.3782 20.0595 24.5477 20.1805C24.7171 20.3096 24.9349 20.4871 25.0318 20.584C25.1286 20.6808 25.3464 20.8664 25.5078 20.9874C25.6773 21.1084 25.8548 21.294 25.9032 21.3908C26.0645 21.6813 26 22.1573 25.7741 22.3994C25.5804 22.6092 25.5562 22.6172 24.1846 22.6737C22.7161 22.7463 21.054 22.7141 20.9007 22.6253C20.6667 22.4801 20.8764 22.0928 21.1911 22.0928C21.3928 22.0928 22.0787 21.7943 22.1513 21.6813C22.1755 21.6409 22.5547 21.6087 22.9904 21.6087C23.9264 21.6087 24.2007 21.5199 24.2007 21.2052C24.2007 20.8906 24.0555 20.8018 23.5391 20.8018C23.2809 20.8018 23.0711 20.7695 23.0711 20.7211C23.0711 20.6727 23.1034 20.6404 23.1437 20.6404C23.2244 20.6404 23.5552 19.8659 23.5552 19.6641C23.5552 19.4463 23.7327 19.4786 24.0071 19.7287ZM29.2597 23.5613C29.4614 23.6581 29.647 23.8033 29.6712 23.884C29.6873 23.9647 29.7358 24.0292 29.7761 24.0292C29.8164 24.0292 29.8487 24.239 29.8487 24.4972C29.8487 24.9087 29.8164 24.9975 29.6228 25.1992C29.2436 25.5784 28.8563 25.643 27.0086 25.643H25.3303V25.9173C25.3303 26.2642 25.3949 26.3046 25.9032 26.3046C26.4518 26.2965 26.4922 26.4014 26.4276 27.531C26.3954 28.0232 26.355 28.4347 26.3389 28.4589C26.3066 28.4912 25.7741 28.241 23.7569 27.2486C23.055 26.8936 22.4256 26.6112 22.3691 26.6112C22.3127 26.6112 22.2642 26.5709 22.2642 26.5305C22.2642 26.4821 22.2078 26.4498 22.1432 26.4498C22.0787 26.4498 22.0222 26.4095 22.0222 26.3691C22.0222 26.3207 22.3853 26.2885 22.942 26.2885C23.7973 26.2885 23.8699 26.2723 23.9183 26.1271C23.9425 26.0383 23.9425 25.8931 23.9183 25.8043C23.8699 25.643 23.7973 25.643 17.883 25.643C11.3797 25.643 11.4846 25.651 11.0328 25.1911C10.8391 24.9975 10.8069 24.9087 10.8069 24.4972C10.8069 24.239 10.8391 24.0292 10.8875 24.0292C10.936 24.0292 10.9682 23.9728 10.9682 23.9082C10.9682 23.7872 11.1619 23.65 11.5734 23.4887C11.7509 23.4241 14.0182 23.3918 20.352 23.3918L28.8805 23.3838L29.2597 23.5613ZM18.472 26.353C18.472 26.4337 17.8507 26.7726 17.6974 26.7726C17.6329 26.7726 17.5845 26.8048 17.5845 26.8533C17.5845 26.8936 17.5441 26.9339 17.4876 26.9339C17.4392 26.9339 16.7211 27.2648 15.9062 27.6682C15.0913 28.0716 14.3732 28.3782 14.3167 28.354C14.2279 28.3217 14.2118 28.112 14.2441 27.4019C14.2683 26.9017 14.3006 26.4498 14.3167 26.3933C14.357 26.2804 18.472 26.2481 18.472 26.353ZM28.0575 27.7569L28.0333 29.2335H27.5895H27.1457L27.1215 27.8618C27.1135 27.1114 27.1215 26.4498 27.1377 26.3933C27.1699 26.3288 27.3394 26.2885 27.6299 26.2885H28.0736L28.0575 27.7569Z"
        fill="#299B9C" />
</svg>