<svg xmlns="http://www.w3.org/2000/svg" width="40" height="40" viewBox="0 0 40 40" fill="none">
    <circle cx="20" cy="20" r="20" fill="white" />
    <path
        d="M21.9976 8.68359C21.8219 9.07422 21.6656 9.40625 21.6656 9.44531C21.6656 9.48438 22.0562 9.75781 22.5445 10.0508L23.4234 10.5586L22.8961 11.4766C22.6226 11.9844 22.3101 12.4727 22.2125 12.5898C22.1148 12.6875 21.5289 12.4727 20.6891 12.0234C19.1656 11.2031 18.9703 11.2422 18.5406 12.3164C18.3062 12.8828 18.3258 12.9414 18.8336 13.3516L19.3805 13.8008L16.4312 18.9766C14.7906 21.8281 13.4625 24.2305 13.4625 24.3281C13.4625 24.4258 13.7359 24.6602 14.0484 24.8359C14.6344 25.168 14.6344 25.1875 14.3414 25.7539C14.1851 26.0859 14.0484 26.6133 14.0484 26.9453C14.0484 27.2773 13.9117 27.8047 13.7555 28.1172C13.5992 28.4297 13.482 28.8789 13.5016 29.1328C13.5016 29.3867 13.1109 30.2852 12.6226 31.125C11.8023 32.5508 11.6656 33 12.0758 33C12.1539 33 12.6422 32.2578 13.15 31.3398C13.7359 30.3047 14.2047 29.6797 14.4 29.6797C14.5953 29.6797 14.8687 29.4258 15.0641 29.1133C15.2398 28.8008 15.6305 28.3906 15.943 28.1953C16.2359 28 16.5484 27.7461 16.6266 27.6289C17.2711 26.6719 17.2711 26.6719 17.857 27.0625C18.3844 27.4141 18.4039 27.4141 18.7164 27.0234C18.8922 26.7891 20.2984 24.4062 21.8609 21.6914C23.4234 18.9961 24.7906 16.8281 24.8883 16.8672C25.0055 16.9062 25.2398 17.0039 25.4156 17.082C25.6695 17.1797 25.8648 17.043 26.1578 16.5547C26.3726 16.2031 26.5484 15.8125 26.5484 15.6758C26.5484 15.5391 25.943 15.0703 25.1812 14.6211C23.6773 13.7227 23.6969 13.8789 24.732 12.2383L25.1812 11.5156L25.9625 12.0039C26.3922 12.2773 26.8219 12.4922 26.9391 12.4922C27.1539 12.4922 27.7203 11.4766 27.7203 11.0859C27.7203 10.8125 23.0328 8 22.5836 8C22.4469 8 22.1734 8.3125 21.9976 8.68359ZM23.6773 9.19141C25.8453 10.2852 27.1148 11.1445 27.0172 11.418C26.9391 11.5742 26.8219 11.7109 26.7437 11.7109C26.4703 11.7109 22.4469 9.34766 22.4469 9.19141C22.4469 9.03516 22.6617 8.78125 22.7789 8.78125C22.818 8.78125 23.2281 8.97656 23.6773 9.19141ZM24.2828 11.0469C24.5562 11.1445 24.5172 11.3203 23.9703 12.2773C23.6383 12.8828 23.3453 13.3906 23.3258 13.4297C23.3062 13.4492 23.1305 13.4297 22.9547 13.3516C22.6812 13.2539 22.7203 13.0781 23.2672 12.082C23.6187 11.457 23.9117 10.9297 23.9312 10.9297C23.9703 10.9297 24.1266 10.9883 24.2828 11.0469ZM21.0016 12.9414L22.4078 13.7617L20.7086 16.6914C19.6344 18.5273 18.8336 19.7188 18.5211 19.8555C17.9937 20.1289 16.8609 20.1875 16.7242 19.9531C16.6656 19.875 17.4078 18.4883 18.3648 16.8867C19.3023 15.2656 20.0836 13.8008 20.1031 13.6055C20.1031 13.4297 19.8883 13.1562 19.6148 13.0391C19.1461 12.8242 18.9898 12.4922 19.2633 12.2383C19.4586 12.0234 19.5367 12.0625 21.0016 12.9414ZM24.8492 15.1875C25.8648 15.7734 25.9625 15.8906 25.7086 16.1445C25.4937 16.3789 25.3375 16.3789 25.025 16.2227C24.8101 16.1055 24.5758 16.0078 24.5172 16.0078C24.4781 16.0078 24.0094 16.75 23.5016 17.6484L22.5641 19.2891L21.3726 19.1914C20.7281 19.1328 20.1812 19.0547 20.1422 19.0352C20.1226 19.0156 20.7281 17.9023 21.5094 16.5547C23.1109 13.8008 22.7789 13.9375 24.8492 15.1875ZM22.0172 19.8164C22.0953 19.875 21.9195 20.3242 21.6656 20.793L21.1969 21.6523L20.5133 21.2617C19.5953 20.7148 19.2633 21.1055 20.1812 21.6719C20.7672 22.0234 20.8453 22.1602 20.6891 22.4531C20.3766 23.0195 20.1812 23.0586 19.5367 22.707C19.107 22.4531 18.8922 22.4141 18.7359 22.5703C18.5601 22.7461 18.6969 22.9023 19.2047 23.2344C19.9859 23.7031 20.0055 23.7617 19.6148 24.3086C19.3219 24.6602 19.3023 24.6602 18.7555 24.3477C18.0523 23.9375 17.7594 23.918 17.7594 24.3086C17.7594 24.4648 18.0328 24.7188 18.3453 24.8945C19.0289 25.2461 19.0289 25.2266 18.6383 25.9883L18.3258 26.5742L17.2125 25.9297C16.607 25.5977 15.65 25.0312 15.1031 24.7188L14.1266 24.1133L15.1226 22.3555L16.1383 20.6172L17.2906 20.5781C18.1109 20.5586 18.7555 20.4023 19.5172 20.0312C20.5133 19.543 21.6461 19.4453 22.0172 19.8164ZM15.9039 25.9102C16.7047 26.2812 16.7437 26.5352 16.1578 27.1016C15.9039 27.3164 15.3766 27.8242 14.9664 28.2344C14.1851 28.9961 13.7945 29.0156 14.3219 28.2734C14.4976 28.0391 14.6344 27.4922 14.6344 27.082C14.6344 26.418 14.9078 25.5781 15.1226 25.5781C15.1617 25.5781 15.5133 25.7344 15.9039 25.9102Z"
        fill="#299B9C" />
    <path d="M18.5017 10.6758C17.9743 10.8125 18.0915 11.125 18.6384 11.125C18.9118 11.125 19.1267 11.0469 19.1267 10.9492C19.1267 10.6953 18.8923 10.5977 18.5017 10.6758Z" fill="#299B9C" />
    <path d="M20.2986 10.7344C20.2986 10.8321 20.4353 10.9297 20.5916 10.9297C20.7478 10.9297 20.9431 10.9297 21.0212 10.9493C21.0994 10.9493 21.197 10.8712 21.2361 10.754C21.2751 10.6368 21.0798 10.5391 20.8064 10.5391C20.533 10.5391 20.2986 10.6172 20.2986 10.7344Z" fill="#299B9C" />
    <path d="M16.2942 11.3789C16.0989 11.5351 16.0208 11.6914 16.1185 11.75C16.3919 11.9257 17.2122 11.5351 17.0755 11.3203C16.9192 11.0664 16.7239 11.0664 16.2942 11.3789Z" fill="#299B9C" />
    <path
        d="M11.7829 13.1172C10.5719 14.7773 10.1227 15.6953 9.96646 16.8867C9.82974 17.8828 9.82974 17.9023 10.6501 18.7422C11.4118 19.5234 11.5876 19.6016 12.6227 19.6797C13.5797 19.7383 13.8727 19.6797 14.4391 19.2891C15.8649 18.332 16.1188 16.8672 15.1618 15.0312C14.5368 13.8398 13.1305 11.9062 12.8766 11.9062C12.7594 11.9062 12.2711 12.4531 11.7829 13.1172ZM14.7516 15.5391C15.3571 16.7695 15.2594 17.707 14.4196 18.5469C13.6969 19.2695 12.9157 19.4258 12.0172 19.0547C11.0211 18.6445 10.4743 17.707 10.611 16.6133C10.7282 15.7734 11.6852 13.9766 12.486 13.1172L12.9157 12.6484L13.5993 13.5859C13.9508 14.1133 14.4782 14.9922 14.7516 15.5391Z"
        fill="#299B9C" />
    <path d="M11.3142 17.0039C11.3142 17.5117 12.3298 18.5469 12.8572 18.5469C13.3845 18.5469 14.2048 17.7852 14.3611 17.1211C14.5369 16.3789 14.0095 16.418 13.7166 17.1797C13.5408 17.6484 13.3845 17.7656 12.9353 17.7656C12.2908 17.7656 11.9001 17.4531 11.9001 16.9453C11.9001 16.75 11.7634 16.5938 11.6072 16.5938C11.4314 16.5938 11.3142 16.7695 11.3142 17.0039Z" fill="#299B9C" />
    <path d="M14.5755 12.1211C14.2435 12.3164 14.1067 12.8828 14.3997 12.8828C14.4974 12.8828 14.7122 12.7656 14.888 12.6289C15.3177 12.3164 15.0442 11.8672 14.5755 12.1211Z" fill="#299B9C" />
    <path d="M26.7439 13.3516C26.7439 13.6641 27.2712 13.918 27.5447 13.7422C27.7986 13.5859 27.3689 13.0781 27.0173 13.0781C26.8611 13.0781 26.7439 13.1953 26.7439 13.3516Z" fill="#299B9C" />
    <path d="M28.3064 14.9141C28.3064 15.0508 28.4236 15.2852 28.5798 15.4024C28.9509 15.7149 29.2048 15.3047 28.8923 14.9337C28.5798 14.5626 28.3064 14.5626 28.3064 14.9141Z" fill="#299B9C" />
    <path d="M29.4783 16.6327C29.4783 17.0624 29.8103 17.4335 30.0447 17.2968C30.2009 17.1992 30.2009 17.0429 30.0642 16.7695C29.8298 16.3593 29.4783 16.2617 29.4783 16.6327Z" fill="#299B9C" />
    <path d="M30.2983 18.7617C30.3178 18.9961 30.4741 19.2305 30.6108 19.2891C30.7866 19.3477 30.8647 19.2305 30.8061 18.918C30.7866 18.6836 30.6303 18.4492 30.4936 18.3907C30.3178 18.3321 30.2397 18.4492 30.2983 18.7617Z" fill="#299B9C" />
    <path
        d="M24.2439 19.1718C24.3025 19.3476 25.0447 19.4648 26.6658 19.5234C28.99 19.621 28.99 19.621 28.99 20.1093V20.5976L26.0212 20.6562C23.6189 20.6952 23.033 20.7538 23.033 20.9882C23.033 21.1249 23.2283 21.2812 23.4822 21.3202C24.2439 21.4179 24.1462 22.2773 23.2478 23.3124L22.447 24.2304V27.707C22.447 30.832 22.4861 31.2226 22.7986 31.496C23.1111 31.7695 23.658 31.8281 26.3142 31.8281C30.3181 31.8281 30.0642 32.1015 30.0642 27.7656C30.0642 24.3671 30.0056 24.1327 29.0486 23.1171C28.3259 22.3359 28.3455 21.457 29.0876 21.2812C29.4587 21.1835 29.5955 21.0273 29.6345 20.5195C29.6736 20.1679 29.5564 19.6796 29.3806 19.4062C29.0876 18.957 29.0095 18.9374 26.6267 18.9374C24.7517 18.9374 24.1853 18.996 24.2439 19.1718ZM27.8181 21.5741C27.8181 21.8671 24.7322 21.8085 24.6345 21.5156C24.5759 21.3202 24.947 21.2812 26.197 21.3202C27.0955 21.3593 27.8181 21.457 27.8181 21.5741ZM27.7986 22.3749C27.9744 22.4335 28.1111 22.5898 28.1111 22.7265C28.1111 22.8437 28.4236 23.2929 28.7947 23.7226C29.1658 24.1523 29.4783 24.6991 29.4783 24.9335C29.4783 25.3827 29.4783 25.3827 26.2556 25.3827C23.033 25.3827 23.033 25.3827 23.033 24.9335C23.033 24.6991 23.3845 24.0741 23.8142 23.5468C24.2439 23.039 24.5955 22.5312 24.5955 22.4335C24.5955 22.2382 27.3103 22.1991 27.7986 22.3749ZM29.4783 28.4491C29.4783 31.5351 29.5955 31.4374 26.158 31.4374C24.3611 31.4374 23.4236 31.3593 23.2673 31.2031C23.1111 31.0468 23.033 30.1679 23.033 28.5663V26.164H26.2556H29.4783V28.4491Z"
        fill="#299B9C" />
    <path d="M27.6029 27.2188C27.5248 27.4141 27.5638 27.6485 27.681 27.7657C27.8373 27.9219 27.9349 27.9024 28.0326 27.6485C28.1107 27.4532 28.0717 27.2188 27.9545 27.1016C27.7982 26.9453 27.7006 26.9649 27.6029 27.2188Z" fill="#299B9C" />
    <path d="M25.2989 28.625C24.6934 29.2109 25.1231 30.2656 25.963 30.2656C26.4317 30.2656 26.9395 29.7578 26.9395 29.2891C26.9395 28.4492 25.8848 28.0195 25.2989 28.625ZM26.3145 29.3477C26.3536 29.543 26.2559 29.6797 26.0802 29.6797C25.7286 29.6797 25.5138 29.3672 25.67 29.0742C25.8458 28.8008 26.2364 28.957 26.3145 29.3477Z" fill="#299B9C" />
    <path d="M9.28306 19.4453C9.10728 19.9141 9.14635 20.1094 9.43931 20.1094C9.69322 20.1094 9.94713 19.7188 9.94713 19.3086C9.94713 19.0156 9.41978 19.1133 9.28306 19.4453Z" fill="#299B9C" />
    <path d="M30.5134 20.8125C30.3571 21.2227 30.7673 21.6328 31.0603 21.3398C31.3142 21.0859 31.1579 20.5 30.8454 20.5C30.7282 20.5 30.5915 20.6367 30.5134 20.8125Z" fill="#299B9C" />
    <path d="M9.00968 21.7109C9.04874 21.9648 9.16593 22.1602 9.26358 22.1602C9.38077 22.1602 9.47843 21.9648 9.51749 21.7109C9.55655 21.418 9.47843 21.2813 9.26358 21.2813C9.04874 21.2813 8.97061 21.418 9.00968 21.7109Z" fill="#299B9C" />
    <path d="M9.20503 23.7422C9.24409 24.0352 9.38081 24.3086 9.51753 24.3672C9.71284 24.4258 9.77143 24.2891 9.71284 23.8984C9.67378 23.6055 9.53706 23.332 9.40034 23.2734C9.20503 23.2149 9.14643 23.3516 9.20503 23.7422Z" fill="#299B9C" />
    <path d="M30.8457 27.4141C30.8457 29.8945 30.7676 31.3985 30.6114 31.7305C30.3379 32.3555 30.5528 32.5899 31.002 32.1602C31.6075 31.5352 31.7051 23.8789 31.0996 23.6641C30.9043 23.6055 30.8457 24.4453 30.8457 27.4141Z" fill="#299B9C" />
    <path d="M9.71289 25.5C9.51757 25.6758 9.79101 26.3594 10.0254 26.3594C10.416 26.3594 10.5332 26.1445 10.3184 25.7539C10.123 25.3828 9.9082 25.2852 9.71289 25.5Z" fill="#299B9C" />
    <path d="M10.533 27.4336C10.533 27.707 10.9431 28.3125 11.1384 28.3125C11.49 28.3125 11.2361 27.4336 10.8845 27.375C10.6892 27.3359 10.533 27.3555 10.533 27.4336Z" fill="#299B9C" />
    <path d="M11.9001 29.2695C11.9001 29.5039 12.4666 29.9531 12.6033 29.8164C12.8181 29.621 12.5056 29.0937 12.1931 29.0937C12.0369 29.0937 11.9001 29.1718 11.9001 29.2695Z" fill="#299B9C" />
    <path d="M13.8533 30.832C13.8533 30.9297 13.9705 31.1054 14.1267 31.2226C14.4392 31.4765 14.7517 31.1836 14.5369 30.8515C14.3806 30.6172 13.8533 30.5976 13.8533 30.832Z" fill="#299B9C" />
    <path d="M15.6111 31.8281C15.6111 32.1406 16.3533 32.4531 16.5095 32.1992C16.6462 31.9648 16.2751 31.6327 15.865 31.6327C15.7283 31.6327 15.6111 31.7109 15.6111 31.8281Z" fill="#299B9C" />
    <path d="M17.7006 32.3359C17.4857 32.5703 17.7592 32.8047 18.267 32.8047C18.5795 32.8047 18.7357 32.707 18.6967 32.5508C18.599 32.2969 17.9154 32.1211 17.7006 32.3359Z" fill="#299B9C" />
    <path d="M21.8611 32.3945C21.8611 32.6875 22.1541 32.8047 22.6033 32.668C23.2283 32.5117 23.1306 32.2187 22.447 32.2187C22.1345 32.2187 21.8611 32.2969 21.8611 32.3945Z" fill="#299B9C" />
    <path d="M19.8108 32.6094C19.6546 32.8633 20.2014 33.0781 20.5921 32.9219C20.7483 32.8633 20.885 32.7266 20.885 32.6094C20.885 32.3555 19.9671 32.3555 19.8108 32.6094Z" fill="#299B9C" />
</svg>