<svg xmlns="http://www.w3.org/2000/svg"
     width="27"
     height="31"
     viewBox="0 0 27 31"
     fill="none">
    <path d="M24.1992 26.2186V29.7188H23.6247V27.163L22.317 29.3225H22.0396L20.7452 27.1564V29.7188H20.1641V26.2186H20.8179L22.1915 28.5829L23.6048 26.2186H24.1992Z"
          fill="#964377" />
    <path d="M19.1804 27.9885C19.1804 28.0369 19.176 28.1008 19.1672 28.18H16.3274C16.367 28.4882 16.5013 28.737 16.7302 28.9263C16.9636 29.1112 17.2519 29.2037 17.5954 29.2037C18.0136 29.2037 18.3504 29.0628 18.6058 28.781L18.9558 29.1905C18.7973 29.3754 18.5992 29.5163 18.3614 29.6131C18.1281 29.71 17.8661 29.7584 17.5755 29.7584C17.2057 29.7584 16.8777 29.6836 16.5915 29.5339C16.3053 29.3798 16.083 29.1662 15.9245 28.8933C15.7704 28.6203 15.6934 28.3121 15.6934 27.9687C15.6934 27.6297 15.7682 27.3237 15.9179 27.0507C16.072 26.7777 16.2811 26.5664 16.5453 26.4167C16.8139 26.2626 17.1155 26.1856 17.4501 26.1856C17.7847 26.1856 18.0819 26.2626 18.3416 26.4167C18.6058 26.5664 18.8105 26.7777 18.9558 27.0507C19.1055 27.3237 19.1804 27.6363 19.1804 27.9885ZM17.4501 26.7205C17.1463 26.7205 16.8909 26.813 16.684 26.9979C16.4815 27.1828 16.3626 27.4249 16.3274 27.7243H18.5728C18.5376 27.4293 18.4165 27.1894 18.2096 27.0045C18.007 26.8152 17.7539 26.7205 17.4501 26.7205Z"
          fill="#964377" />
    <path d="M11.4316 26.2186H12.0656V28.7678L14.212 26.2186H14.7866V29.7188H14.1526V27.1696L12.0128 29.7188H11.4316V26.2186Z"
          fill="#964377" />
    <path d="M8.74054 26.1856C9.07955 26.1856 9.38335 26.2604 9.65192 26.4101C9.92049 26.5598 10.1296 26.7689 10.2793 27.0375C10.4334 27.3061 10.5105 27.6165 10.5105 27.9687C10.5105 28.3209 10.4334 28.6335 10.2793 28.9065C10.1296 29.1751 9.92049 29.3842 9.65192 29.5339C9.38335 29.6836 9.07955 29.7584 8.74054 29.7584C8.48958 29.7584 8.25843 29.71 8.0471 29.6131C7.84017 29.5163 7.66406 29.3754 7.51877 29.1905V31H6.88477V26.2186H7.49235V26.7733C7.63324 26.5796 7.81155 26.4343 8.02729 26.3375C8.24302 26.2362 8.48077 26.1856 8.74054 26.1856ZM8.68771 29.2037C8.91225 29.2037 9.11257 29.153 9.28869 29.0518C9.4692 28.9461 9.61009 28.8008 9.71135 28.6159C9.81702 28.4266 9.86985 28.2108 9.86985 27.9687C9.86985 27.7265 9.81702 27.513 9.71135 27.3281C9.61009 27.1388 9.4692 26.9935 9.28869 26.8922C9.11257 26.7909 8.91225 26.7403 8.68771 26.7403C8.46757 26.7403 8.26724 26.7931 8.08673 26.8988C7.91061 27.0001 7.76972 27.1432 7.66406 27.3281C7.56279 27.513 7.51216 27.7265 7.51216 27.9687C7.51216 28.2108 7.56279 28.4266 7.66406 28.6159C7.76532 28.8008 7.90621 28.9461 8.08673 29.0518C8.26724 29.153 8.46757 29.2037 8.68771 29.2037Z"
          fill="#964377" />
    <path d="M5.65793 26.2186V29.7188H5.02393V26.7733H3.04928V29.7188H2.41528V26.2186H5.65793Z"
          fill="#964377" />
    <path d="M23.0759 17.9634H23.7099V19.4493H25.7044V17.9634H26.3384V21.4636H25.7044V19.9974H23.7099V21.4636H23.0759V17.9634Z"
          fill="#964377" />
    <path d="M18.4905 17.9634H19.1245V20.5126L21.2708 17.9634H21.8454V21.4636H21.2114V18.9144L19.0716 21.4636H18.4905V17.9634ZM20.1283 17.5077C19.8025 17.5077 19.5493 17.4306 19.3688 17.2765C19.1883 17.118 19.0959 16.8913 19.0915 16.5963H19.5207C19.5251 16.7592 19.5802 16.8913 19.6858 16.9925C19.7959 17.0894 19.9412 17.1378 20.1217 17.1378C20.3022 17.1378 20.4475 17.0894 20.5576 16.9925C20.6677 16.8913 20.7249 16.7592 20.7293 16.5963H21.1718C21.1674 16.8913 21.0727 17.118 20.8878 17.2765C20.7029 17.4306 20.4497 17.5077 20.1283 17.5077Z"
          fill="#964377" />
    <path d="M15.8498 17.9303C16.3341 17.9303 16.704 18.0492 16.9593 18.287C17.2191 18.5247 17.349 18.8791 17.349 19.3502V21.4636H16.748V21.0013C16.6423 21.1642 16.4904 21.2897 16.2923 21.3777C16.0986 21.4614 15.8674 21.5032 15.5989 21.5032C15.207 21.5032 14.8922 21.4085 14.6545 21.2192C14.4211 21.0299 14.3044 20.7811 14.3044 20.473C14.3044 20.1648 14.4167 19.9182 14.6413 19.7333C14.8658 19.544 15.2224 19.4493 15.7111 19.4493H16.715V19.3238C16.715 19.0509 16.6357 18.8417 16.4772 18.6964C16.3187 18.5511 16.0854 18.4785 15.7772 18.4785C15.5702 18.4785 15.3677 18.5137 15.1696 18.5842C14.9715 18.6502 14.8042 18.7405 14.6677 18.8549L14.4035 18.3794C14.584 18.2341 14.7998 18.1241 15.0507 18.0492C15.3017 17.97 15.568 17.9303 15.8498 17.9303ZM15.7045 21.0145C15.9467 21.0145 16.1558 20.9617 16.3319 20.856C16.508 20.7459 16.6357 20.5918 16.715 20.3937V19.905H15.7375C15.2004 19.905 14.9318 20.0855 14.9318 20.4465C14.9318 20.6226 15.0001 20.7613 15.1366 20.8626C15.2731 20.9639 15.4624 21.0145 15.7045 21.0145Z"
          fill="#964377" />
    <path d="M13.3754 17.9634V21.4636H12.7414V18.5181H11.2356L11.196 19.2974C11.174 19.7685 11.1322 20.1626 11.0705 20.4796C11.0089 20.7922 10.9076 21.0431 10.7667 21.2324C10.6258 21.4218 10.4299 21.5164 10.179 21.5164C10.0645 21.5164 9.9346 21.4966 9.78931 21.457L9.82893 20.922C9.88617 20.9352 9.939 20.9418 9.98743 20.9418C10.1635 20.9418 10.2956 20.8648 10.3837 20.7107C10.4717 20.5566 10.529 20.3739 10.5554 20.1626C10.5818 19.9512 10.606 19.6496 10.628 19.2578L10.6875 17.9634H13.3754Z"
          fill="#964377" />
    <path d="M5.87549 17.9634H6.50949V19.4493H8.50395V17.9634H9.13795V21.4636H8.50395V19.9974H6.50949V21.4636H5.87549V17.9634Z"
          fill="#964377" />
    <path d="M2.46336 21.5164C1.99666 21.5164 1.5762 21.4151 1.20196 21.2126C0.827724 21.0057 0.532737 20.7217 0.317 20.3607C0.105667 19.9996 0 19.5968 0 19.1521C0 18.7074 0.105667 18.3046 0.317 17.9435C0.532737 17.5825 0.827724 17.3007 1.20196 17.0982C1.5762 16.8913 1.99666 16.7878 2.46336 16.7878C2.92565 16.7878 3.34391 16.8913 3.71815 17.0982C4.09239 17.3007 4.38517 17.5825 4.59651 17.9435C4.80784 18.3002 4.91351 18.703 4.91351 19.1521C4.91351 19.6012 4.80784 20.0062 4.59651 20.3673C4.38517 20.7239 4.09239 21.0057 3.71815 21.2126C3.34391 21.4151 2.92565 21.5164 2.46336 21.5164ZM2.46336 20.9286C2.80237 20.9286 3.10616 20.8516 3.37473 20.6975C3.64771 20.5434 3.86124 20.3321 4.01534 20.0635C4.17384 19.7905 4.25309 19.4867 4.25309 19.1521C4.25309 18.8175 4.17384 18.5159 4.01534 18.2473C3.86124 17.9744 3.64771 17.7608 3.37473 17.6067C3.10616 17.4526 2.80237 17.3756 2.46336 17.3756C2.12434 17.3756 1.81615 17.4526 1.53877 17.6067C1.2658 17.7608 1.05006 17.9744 0.891564 18.2473C0.737466 18.5159 0.660418 18.8175 0.660418 19.1521C0.660418 19.4867 0.737466 19.7905 0.891564 20.0635C1.05006 20.3321 1.2658 20.5434 1.53877 20.6975C1.81615 20.8516 2.12434 20.9286 2.46336 20.9286Z"
          fill="#964377" />
    <path d="M18.7648 7.46476C18.5835 7.62328 18.5002 7.85253 18.5415 8.07736L19.1638 11.1845C19.2162 11.4479 19.0931 11.7144 18.8488 11.8666C18.6094 12.0245 18.291 12.0434 18.0299 11.9171L14.93 10.4582C14.8222 10.4065 14.7025 10.3787 14.5801 10.3755H14.3904C14.3246 10.3844 14.2602 10.4033 14.2014 10.4324L11.1008 11.8982C10.9475 11.9676 10.7739 11.9923 10.6039 11.9676C10.1895 11.8969 9.91306 11.5407 9.98095 11.1649L10.6039 8.05778C10.6452 7.83106 10.5619 7.60055 10.3806 7.4395L7.85323 5.22912C7.64186 5.04408 7.56837 4.76621 7.66495 4.51549C7.75874 4.2654 7.99811 4.08289 8.28717 4.04184L11.7657 3.5865C12.0303 3.56187 12.2627 3.41661 12.3816 3.20189L13.9144 0.366291C13.9508 0.303138 13.9977 0.245036 14.0544 0.195776L14.1174 0.151569C14.1503 0.118729 14.1881 0.0915728 14.2301 0.069469L14.3064 0.0442076L14.4254 0H14.72C14.9832 0.0246299 15.2149 0.166726 15.336 0.378922L16.889 3.20189C17.001 3.4084 17.2187 3.55176 17.47 3.5865L20.9485 4.04184C21.2425 4.07973 21.4881 4.26287 21.5854 4.51549C21.6771 4.76873 21.598 5.04661 21.3825 5.22912L18.7648 7.46476Z"
          fill="#964377" />
</svg>